<?xml version="1.0" encoding="utf-8"?>
<!-- Generator: Adobe Illustrator 27.0.0, SVG Export Plug-In . SVG Version: 6.00 Build 0)  -->
<svg version="1.1" id="Layer_1" xmlns="http://www.w3.org/2000/svg" xmlns:xlink="http://www.w3.org/1999/xlink" x="0px" y="0px"
	 viewBox="0 0 1920 1080" style="enable-background:new 0 0 1920 1080;" xml:space="preserve">
<style type="text/css">
	.st0{opacity:0.5;fill:#FFFFFF;}
	.st1{fill:#E5E5E5;}
	.st2{font-family:'Gotham-Black';}
	.st3{font-size:34.166px;}
	.st4{fill:#39B44A;}
	.st5{fill:#FFFFFF;}
</style>
<g>
	<polygon class="st0" points="1213.55,859.72 498.57,708.4 498.57,505.24 1213.55,369.8 	"/>
	<text transform="matrix(0 -1 1 0 1213.5078 853.7725)"><tspan x="0" y="0" class="st1 st2 st3">WHAT</tspan><tspan x="113.88" y="0" class="st4 st2 st3">WE</tspan><tspan x="174.83" y="0" class="st5 st2 st3">DO</tspan></text>
</g>
<g>
	<polygon class="st0" points="1116.01,934.32 401.03,783 401.03,579.84 1116.01,444.4 	"/>
	<text transform="matrix(0 -1 1 0 1115.6289 929.165)"><tspan x="0" y="0" class="st1 st2 st3">WHO</tspan><tspan x="92.56" y="0" class="st4 st2 st3">WE</tspan><tspan x="153.51" y="0" class="st5 st2 st3">ARE</tspan></text>
</g>
<g>
	<polygon class="st0" points="1506.18,635.92 791.2,484.61 791.2,281.44 1506.18,146 	"/>
	<text transform="matrix(0 -1 1 0 1506.0898 635.2676)"><tspan x="0" y="0" class="st1 st2 st3">CONTACT</tspan><tspan x="177.36" y="0" class="st4 st2 st3">US</tspan></text>
</g>
<g>
	<polygon class="st0" points="1311.09,785.12 596.11,633.8 596.11,430.64 1311.09,295.2 	"/>
	<text transform="matrix(0 -1 1 0 1311.2881 782.3457)"><tspan x="0" y="0" class="st1 st2 st3">OUR</tspan><tspan x="78.86" y="0" class="st4 st2 st3">WORK</tspan></text>
</g>
<g>
	<polygon class="st0" points="1408.63,710.52 693.66,559.2 693.66,356.04 1408.63,220.6 	"/>
	<text transform="matrix(0 -1 1 0 1408.4922 707.8965)"><tspan x="0" y="0" class="st1 st2 st3">ABOUT</tspan><tspan x="128.43" y="0" class="st4 st2 st3">US</tspan></text>
</g>
</svg>
